<svg width="446" height="137" viewBox="0 0 446 137" fill="none" xmlns="http://www.w3.org/2000/svg">
<path d="M408.418 10.0001C405.52 9.98901 402.685 10.8381 400.27 12.4398C397.855 14.0415 395.97 16.3238 394.854 18.9976C393.737 21.6714 393.44 24.6164 393.998 27.4596C394.556 30.3028 395.946 32.9164 397.991 34.9692C400.036 37.022 402.644 38.4217 405.485 38.9911C408.326 39.5605 411.272 39.2739 413.951 38.1676C416.629 37.0614 418.918 35.1852 420.529 32.7767C422.14 30.3683 423 27.5359 423 24.6384C422.985 20.7703 421.446 17.0639 418.716 14.3235C415.986 11.5831 412.286 10.0296 408.418 10.0001ZM408.418 35.1824C406.317 35.1935 404.259 34.5798 402.508 33.4193C400.756 32.2589 399.389 30.6039 398.579 28.6647C397.77 26.7255 397.556 24.5896 397.963 22.5282C398.37 20.4667 399.381 18.5728 400.866 17.087C402.352 15.6012 404.246 14.5905 406.308 14.1833C408.369 13.7761 410.505 13.9907 412.444 14.7999C414.383 15.6092 416.038 16.9765 417.199 18.7282C418.359 20.48 418.973 22.5371 418.962 24.6384C418.947 27.4303 417.832 30.1036 415.857 32.0778C413.883 34.052 411.21 35.1677 408.418 35.1824ZM413.69 22.7315C413.712 22.1081 413.611 21.4865 413.391 20.9027C413.171 20.3189 412.838 19.7845 412.41 19.3306C411.982 18.8767 411.469 18.5123 410.899 18.2584C410.329 18.0046 409.714 17.8665 409.091 17.852H403.482V31.3125H406.343V27.5548H408.81L411.503 31.3125H414.699L411.39 26.7696C412.102 26.3659 412.691 25.7775 413.096 25.0668C413.5 24.3561 413.706 23.5492 413.69 22.7315ZM408.081 24.7505H406.006V20.7685H408.081C410.661 20.7685 410.661 22.2267 410.661 22.7315C410.661 23.2362 410.661 24.7505 408.081 24.7505Z" fill="#EC2024"/>
<path d="M26.4216 126.489C25.4241 125.976 24.6036 125.175 24.0661 124.19C23.5006 123.2 23.2102 122.077 23.2248 120.937C23.2018 119.796 23.4928 118.671 24.0661 117.684C24.6036 116.699 25.4241 115.898 26.4216 115.384C27.4515 114.817 28.6111 114.527 29.7868 114.543C30.6664 114.54 31.5396 114.692 32.3667 114.992C33.1351 115.304 33.8247 115.783 34.3857 116.394L33.5445 117.235C33.0632 116.744 32.4866 116.356 31.85 116.096C31.2135 115.835 30.5304 115.708 29.8428 115.721C28.8843 115.707 27.9381 115.938 27.0947 116.394C26.3134 116.865 25.6588 117.519 25.1878 118.301C24.729 119.102 24.4964 120.013 24.5147 120.937C24.5046 121.859 24.7367 122.768 25.1878 123.573C25.6659 124.334 26.3199 124.968 27.0947 125.424C27.9244 125.919 28.8766 126.172 29.8428 126.153C30.51 126.113 31.1622 125.939 31.7599 125.64C32.3576 125.341 32.8884 124.924 33.3201 124.414L34.1614 125.255C33.5947 125.846 32.9055 126.305 32.1423 126.601C31.3248 126.94 30.4475 127.112 29.5624 127.106C28.4813 127.154 27.4044 126.942 26.4216 126.489Z" fill="#221F1F"/>
<path d="M47.8456 126.489C46.8666 125.95 46.0524 125.155 45.49 124.19C44.9246 123.2 44.6341 122.077 44.6487 120.937C44.6257 119.796 44.9167 118.671 45.49 117.684C46.0275 116.699 46.8481 115.898 47.8456 115.384C48.8755 114.817 50.0351 114.527 51.2107 114.543C52.3879 114.514 53.5509 114.804 54.5758 115.384C55.5688 115.944 56.394 116.76 56.9659 117.746C57.5379 118.732 57.8358 119.853 57.8288 120.993C57.8501 122.141 57.5384 123.271 56.9314 124.246C56.3939 125.231 55.5734 126.032 54.5758 126.545C53.5509 127.125 52.3879 127.416 51.2107 127.387C50.03 127.385 48.8701 127.076 47.8456 126.489ZM53.9028 125.48C54.7189 125.055 55.3846 124.389 55.8097 123.573C56.2608 122.768 56.4929 121.859 56.4827 120.937C56.4702 119.992 56.2195 119.066 55.7536 118.245C55.3113 117.456 54.6487 116.812 53.8467 116.394C53.0199 115.948 52.0942 115.716 51.1546 115.721C50.215 115.716 49.2894 115.948 48.4625 116.394C47.6885 116.831 47.0486 117.471 46.6117 118.245C46.1178 119.055 45.8649 119.988 45.8826 120.937C45.863 121.868 46.1164 122.784 46.6117 123.573C47.0303 124.375 47.6734 125.037 48.4625 125.48C49.2894 125.926 50.215 126.157 51.1546 126.153C52.1131 126.167 53.0593 125.935 53.9028 125.48Z" fill="#221F1F"/>
<path d="M82.619 114.655V127.218H81.3851V117.179L76.4496 125.592H75.7766L70.8971 117.235V127.218H69.6072V114.655H70.6728L76.2813 123.965L81.8899 114.655H82.619Z" fill="#221F1F"/>
<path d="M103.987 115.777C104.435 116.176 104.788 116.67 105.021 117.223C105.254 117.776 105.36 118.374 105.333 118.974C105.36 119.565 105.253 120.154 105.02 120.698C104.787 121.242 104.434 121.726 103.987 122.114C102.91 122.928 101.576 123.327 100.229 123.236H96.8644V127.218H95.5183V114.655H100.229C101.576 114.565 102.91 114.963 103.987 115.777ZM103.034 121.385C103.366 121.104 103.629 120.751 103.804 120.352C103.979 119.954 104.061 119.521 104.043 119.086C104.065 118.642 103.986 118.199 103.811 117.791C103.636 117.383 103.37 117.02 103.034 116.73C102.208 116.124 101.196 115.826 100.173 115.889H96.8644V122.17H100.173C101.199 122.191 102.203 121.876 103.034 121.273V121.385Z" fill="#221F1F"/>
<path d="M118.401 125.928C117.908 125.373 117.53 124.725 117.289 124.022C117.048 123.319 116.95 122.575 116.999 121.834V114.655H118.345V121.778C118.247 122.952 118.609 124.119 119.354 125.031C119.71 125.414 120.146 125.713 120.631 125.907C121.115 126.101 121.637 126.185 122.159 126.153C122.689 126.193 123.222 126.113 123.717 125.919C124.212 125.725 124.657 125.421 125.019 125.031C125.765 124.119 126.127 122.952 126.028 121.778V114.655H127.318V121.834C127.375 122.572 127.285 123.313 127.054 124.016C126.823 124.718 126.456 125.368 125.972 125.928C125.463 126.405 124.863 126.775 124.208 127.016C123.553 127.257 122.856 127.364 122.159 127.331C121.47 127.363 120.782 127.255 120.136 127.014C119.49 126.773 118.9 126.404 118.401 125.928Z" fill="#221F1F"/>
<path d="M142.293 115.777H137.919V114.655H148.07V115.777H143.639V126.994H142.293V115.777Z" fill="#221F1F"/>
<path d="M167.924 126.041V127.218H159.007V114.655H167.588V115.777H160.297V120.264H166.803V121.386H160.297V126.041H167.924Z" fill="#221F1F"/>
<path d="M188.339 127.218L185.479 123.18H181.104V127.162H179.814V114.655H184.75C186.096 114.565 187.431 114.963 188.507 115.777C189.266 116.482 189.745 117.437 189.858 118.466C189.972 119.496 189.711 120.532 189.124 121.385C188.619 122.094 187.887 122.608 187.049 122.844L190.078 127.162L188.339 127.218ZM187.274 121.273C187.606 120.992 187.869 120.639 188.044 120.24C188.219 119.842 188.301 119.408 188.283 118.974C188.305 118.53 188.226 118.087 188.051 117.679C187.876 117.271 187.61 116.908 187.274 116.618C186.474 116.002 185.476 115.702 184.469 115.777H181.104V122.114H184.75C185.661 122.123 186.549 121.827 187.274 121.273Z" fill="#221F1F"/>
<path d="M216.382 115.777V120.712H222.888V121.89H216.382V127.499H215.092V114.655H223.673V115.777H216.382Z" fill="#EA2427"/>
<path d="M237.19 126.489C236.211 125.95 235.397 125.155 234.835 124.189C234.228 123.214 233.916 122.085 233.937 120.936C233.93 119.796 234.228 118.675 234.8 117.689C235.372 116.703 236.197 115.888 237.19 115.328C238.227 114.778 239.382 114.49 240.555 114.49C241.729 114.49 242.884 114.778 243.92 115.328C244.918 115.841 245.739 116.642 246.276 117.627C246.849 118.614 247.14 119.739 247.117 120.88C247.236 122.098 247.002 123.324 246.444 124.414C245.907 125.398 245.086 126.199 244.089 126.713C243.054 127.268 241.898 127.558 240.724 127.558C239.549 127.558 238.393 127.268 237.359 126.713L237.19 126.489ZM243.247 125.479C244.037 125.037 244.68 124.374 245.098 123.572C245.594 122.784 245.847 121.867 245.827 120.936C245.845 119.988 245.592 119.054 245.098 118.244C244.661 117.47 244.021 116.83 243.247 116.393C242.395 115.901 241.428 115.642 240.443 115.642C239.459 115.642 238.492 115.901 237.639 116.393C236.849 116.829 236.191 117.468 235.732 118.244C235.286 119.071 235.054 119.997 235.059 120.936C235.049 121.859 235.281 122.768 235.732 123.572C236.173 124.376 236.835 125.038 237.639 125.479C238.492 125.971 239.459 126.231 240.443 126.231C241.428 126.231 242.395 125.971 243.247 125.479Z" fill="#EA2427"/>
<path d="M267.476 127.218L264.616 123.18H260.241V127.162H258.895V114.655H263.606C264.953 114.565 266.287 114.963 267.364 115.777C268.093 116.5 268.552 117.451 268.664 118.472C268.777 119.493 268.535 120.521 267.981 121.385C267.455 122.098 266.704 122.612 265.85 122.844L268.934 127.162L267.476 127.218ZM266.411 121.273C266.743 120.992 267.006 120.639 267.181 120.24C267.356 119.842 267.438 119.408 267.42 118.974C267.442 118.53 267.363 118.087 267.188 117.679C267.013 117.271 266.747 116.908 266.411 116.618C265.594 115.993 264.575 115.693 263.55 115.777H260.241V122.114H263.55C264.575 122.198 265.594 121.898 266.411 121.273Z" fill="#EA2427"/>
<path d="M289.573 126.041V127.218H280.712V114.655H289.293V115.777H282.002V120.264H288.508V121.386H282.002V126.041H289.573Z" fill="#EA2427"/>
<path d="M312.008 114.655V127.218H310.886L302.81 117.011V127.218H301.52V114.655H302.529L310.605 124.863V114.655H312.008Z" fill="#EA2427"/>
<path d="M325.636 126.882C324.908 126.628 324.239 126.227 323.673 125.704L324.178 124.638C324.704 125.144 325.336 125.528 326.029 125.76C326.761 126.049 327.541 126.201 328.328 126.209C329.221 126.274 330.11 126.037 330.852 125.536C331.117 125.37 331.334 125.138 331.481 124.862C331.629 124.587 331.702 124.278 331.693 123.965C331.708 123.74 331.676 123.513 331.599 123.301C331.522 123.089 331.401 122.895 331.245 122.731C330.922 122.431 330.54 122.201 330.123 122.058L328.272 121.554L326.029 120.824C325.47 120.607 324.97 120.261 324.57 119.815C324.161 119.289 323.961 118.629 324.01 117.964C324.004 117.365 324.18 116.779 324.514 116.281C324.869 115.701 325.399 115.25 326.029 114.992C326.852 114.677 327.728 114.525 328.609 114.543C329.298 114.457 329.995 114.457 330.684 114.543C331.32 114.732 331.925 115.016 332.478 115.384L332.03 116.45C331.516 116.096 330.948 115.831 330.347 115.665C329.784 115.49 329.198 115.395 328.609 115.384C327.733 115.318 326.861 115.555 326.141 116.057C325.875 116.236 325.659 116.479 325.512 116.763C325.365 117.047 325.292 117.364 325.299 117.684C325.292 117.9 325.328 118.116 325.405 118.318C325.482 118.52 325.599 118.705 325.748 118.861C326.051 119.199 326.438 119.45 326.87 119.591L328.777 120.095L330.964 120.768C331.523 120.986 332.022 121.331 332.422 121.778C332.847 122.299 333.067 122.957 333.039 123.629C333.052 124.237 332.854 124.832 332.478 125.311C332.124 125.878 331.591 126.312 330.964 126.545C330.134 126.907 329.233 127.079 328.328 127.05C327.427 127.129 326.52 127.072 325.636 126.882Z" fill="#EA2427"/>
<path d="M344.705 114.655H346.051V127.218H344.705V114.655Z" fill="#EA2427"/>
<path d="M361.026 126.489C360.038 126.045 359.201 125.324 358.614 124.414C358.049 123.424 357.758 122.301 357.773 121.161C357.707 119.945 357.999 118.736 358.614 117.684C359.152 116.699 359.972 115.898 360.97 115.384C362 114.817 363.159 114.527 364.335 114.543C365.214 114.54 366.088 114.692 366.915 114.992C367.683 115.304 368.373 115.783 368.934 116.394L368.092 117.235C367.617 116.736 367.042 116.342 366.404 116.081C365.766 115.82 365.08 115.697 364.391 115.721C363.451 115.716 362.526 115.948 361.699 116.394C360.895 116.835 360.233 117.497 359.792 118.301C359.316 119.098 359.064 120.008 359.063 120.937C359.085 121.862 359.335 122.768 359.792 123.573C360.234 124.362 360.897 125.005 361.699 125.424C362.734 125.994 363.929 126.205 365.096 126.022C366.264 125.84 367.338 125.274 368.149 124.414L368.99 125.255C368.423 125.846 367.734 126.305 366.971 126.601C366.155 126.946 365.276 127.118 364.391 127.106C363.235 127.191 362.076 126.979 361.026 126.489Z" fill="#EA2427"/>
<path d="M381.329 126.881C380.601 126.628 379.932 126.227 379.366 125.704L379.871 124.638C380.397 125.144 381.029 125.527 381.722 125.76C382.454 126.048 383.234 126.2 384.021 126.208C384.952 126.301 385.885 126.062 386.657 125.535C386.922 125.37 387.139 125.137 387.286 124.862C387.434 124.587 387.507 124.277 387.498 123.965C387.514 123.739 387.481 123.513 387.404 123.301C387.327 123.088 387.206 122.894 387.05 122.731C386.727 122.431 386.345 122.201 385.928 122.058L384.077 121.553L381.834 120.824C381.275 120.607 380.776 120.261 380.376 119.815C379.966 119.289 379.766 118.629 379.815 117.964C379.81 117.365 379.986 116.779 380.32 116.281C380.674 115.701 381.205 115.249 381.834 114.991C382.657 114.677 383.533 114.525 384.414 114.543C385.122 114.461 385.837 114.461 386.545 114.543C387.16 114.744 387.745 115.026 388.284 115.384L387.835 116.45C387.322 116.096 386.753 115.831 386.152 115.664C385.589 115.49 385.004 115.395 384.414 115.384C383.538 115.318 382.667 115.555 381.946 116.057C381.681 116.236 381.464 116.478 381.317 116.763C381.17 117.047 381.097 117.364 381.105 117.683C381.097 117.9 381.133 118.115 381.21 118.318C381.287 118.52 381.404 118.705 381.553 118.861C381.857 119.199 382.244 119.45 382.675 119.59L384.582 120.095L386.769 120.768C387.328 120.985 387.828 121.331 388.228 121.778C388.653 122.298 388.872 122.957 388.845 123.629C388.858 124.237 388.659 124.832 388.284 125.311C387.929 125.878 387.397 126.312 386.769 126.545C385.939 126.906 385.039 127.079 384.133 127.05C383.196 127.14 382.249 127.083 381.329 126.881Z" fill="#EA2427"/>
<path d="M150.033 21.3856H156.258V80.2191H150.313V74.6105C149.554 76.768 148.103 78.614 146.186 79.8615C144.269 81.1091 141.993 81.6883 139.713 81.509C125.972 81.509 127.094 62.3279 126.926 58.458C126.477 45.6705 130.683 35.5752 140.05 35.5752C142.064 35.5687 144.046 36.0814 145.804 37.0638C147.563 38.0461 149.038 39.4651 150.089 41.1837L150.033 21.3856ZM150.033 57.7289C150.033 51.7278 150.033 40.9033 141.564 40.9033C136.404 40.9033 133.039 44.9975 133.039 58.4019C133.039 67.8242 133.039 76.3492 141.788 76.3492C148.238 76.3492 150.033 68.2729 150.033 63.3374V57.7289Z" fill="#211E1F"/>
<path d="M174.037 36.5846H167.868V80.2189H174.037V36.5846Z" fill="#EA2427"/>
<path d="M203.37 48.3062C203.37 43.1463 201.688 40.6786 196.472 40.6786C191.256 40.6786 189.573 42.7537 189.573 47.2966C189.573 52.9052 194.172 53.6343 198.435 55.429C204.66 58.2894 210.942 59.8597 210.942 67.9921C210.656 70.8225 209.566 73.512 207.802 75.7436C206.037 77.9751 203.671 79.6557 200.983 80.587C198.295 81.5184 195.397 81.6618 192.63 81.0004C189.863 80.3389 187.343 78.9001 185.367 76.8536C183.434 74.1577 182.575 70.8387 182.955 67.5434H188.564C188.564 72.8715 190.134 76.1245 195.911 76.1245C201.688 76.1245 204.268 74.1054 204.268 68.7773C204.268 62.5518 197.986 62.0471 193.499 60.1402C186.769 57.6163 182.843 55.3729 182.843 47.7453C182.768 46.0392 183.063 44.3371 183.708 42.7558C184.353 41.1745 185.333 39.7516 186.579 38.5846C187.826 37.4177 189.311 36.5344 190.931 35.9955C192.552 35.4566 194.27 35.2748 195.967 35.4626C204.604 35.4626 209.596 39.3886 209.428 48.3062H203.37Z" fill="#211E1F"/>
<path d="M224.29 60.3088C224.29 65.9173 224.683 76.1248 232.591 76.1248C239.321 76.1248 239.938 70.5163 240.275 64.9078H246.444C246.444 73.2645 243.079 81.2847 233.32 81.2847C220.028 81.2847 218.121 70.0676 218.121 58.8506C218.121 47.6335 219.859 35.3508 233.208 35.3508C235.075 35.348 236.92 35.7468 238.619 36.5203C240.318 37.2938 241.831 38.4239 243.055 39.8337C244.278 41.2436 245.184 42.9003 245.711 44.6913C246.238 46.4822 246.373 48.3656 246.107 50.2134H240.499C240.499 45.4462 239.153 40.5668 233.264 40.5668C224.01 40.6789 224.29 54.0833 224.29 60.3088Z" fill="#211E1F"/>
<path d="M268.878 81.3969C259.456 81.3969 253.286 75.7883 253.286 56.9437C253.286 43.7636 258.11 35.463 268.878 35.463C279.646 35.463 284.47 43.7636 284.47 56.9437C284.414 75.8444 278.356 81.3969 268.878 81.3969ZM268.878 40.6789C262.484 40.6789 259.68 45.7266 259.68 58.9067C259.68 69.1703 261.643 76.1248 268.878 76.1248C276.113 76.1248 278.02 69.1703 278.02 58.9067C277.964 45.8949 275.328 40.6789 268.878 40.6789Z" fill="#EA2427"/>
<path d="M289.461 36.5846H295.855L305.782 74.9469H305.894L315.821 36.5846H322.215L309.147 80.2189H302.361L289.461 36.5846Z" fill="#211E1F"/>
<path d="M353.847 65.693C354.24 74.274 349.865 81.3969 340.723 81.3969C332.479 81.3969 326.59 75.7883 326.59 58.3458C326.59 49.1478 329.001 35.463 340.555 35.463C354.632 35.463 353.847 48.7552 354.184 58.9627H332.983C332.983 64.8517 332.142 76.1248 340.835 76.1248C346.836 76.1248 348.463 70.5163 348.07 65.693H353.847ZM347.734 53.859C347.734 48.7552 347.734 40.6789 340.611 40.6789C333.488 40.6789 333.264 48.6991 332.983 53.859H347.734Z" fill="#211E1F"/>
<path d="M370.336 43.7632C371.165 41.1479 372.925 38.9274 375.281 37.5218C377.638 36.1162 380.428 35.623 383.123 36.1356V42.2489C375.103 40.8468 370.392 45.8945 370.392 53.8025V80.2187H364.222V36.6404H370.167L370.336 43.7632Z" fill="#211E1F"/>
<path d="M29.1694 94.9695H23V36.6408H28.945V41.4641C29.7512 39.7406 31.0135 38.2703 32.5952 37.2125C34.1769 36.1548 36.0178 35.5498 37.9187 35.463C49.1357 35.463 52.2204 46.6801 52.2204 55.5415C52.2204 67.9364 50.0331 81.3969 38.2552 81.3969C36.3665 81.4114 34.512 80.8928 32.9048 79.9007C31.2976 78.9086 30.0029 77.4832 29.1694 75.7883V94.9695ZM37.4139 40.6789C29.3376 40.6789 29.1694 51.896 29.1694 58.3458C29.1694 64.7956 29.1694 76.1248 37.47 76.1248C43.9198 76.1248 45.9389 69.3946 45.9389 57.6167C45.9389 51.896 45.3219 40.6789 37.4139 40.6789Z" fill="#211E1F"/>
<path d="M68.8213 43.7632C69.651 41.1479 71.4105 38.9274 73.767 37.5218C76.1234 36.1162 78.9133 35.623 81.6087 36.1356V42.2489C73.5886 40.8468 68.8774 45.8945 68.8774 53.8025V80.2187H62.708V36.6404H68.653L68.8213 43.7632Z" fill="#211E1F"/>
<path d="M102.248 81.3969C92.8258 81.3969 86.6564 75.7883 86.6564 56.9437C86.6564 43.7636 91.4797 35.463 102.248 35.463C113.016 35.463 117.84 43.7636 117.84 56.9437C117.84 75.8444 111.839 81.3969 102.248 81.3969ZM102.248 40.6789C95.8544 40.6789 93.0501 45.7266 93.0501 58.9067C93.0501 69.1703 95.0131 76.1248 102.248 76.1248C109.483 76.1248 111.39 69.1703 111.39 58.9067C111.39 45.8949 108.754 40.6789 102.248 40.6789Z" fill="#211E1F"/>
</svg>
