<svg xmlns="http://www.w3.org/2000/svg" xmlns:xlink="http://www.w3.org/1999/xlink" width="500" zoomAndPan="magnify" viewBox="0 0 375 374.999991" height="500" preserveAspectRatio="xMidYMid meet" version="1.0"><defs><g/><clipPath id="id1"><path d="M 127 70.015625 L 249 70.015625 L 249 96 L 127 96 Z M 127 70.015625 " clip-rule="nonzero"/></clipPath></defs><path fill="#10f3fd" d="M 234.359375 113.292969 C 234.34375 112.382812 234.332031 111.523438 234.332031 110.785156 L 234.332031 103.480469 L 227.132812 102.230469 C 217.660156 100.152344 208.375 97.433594 199.277344 94.082031 C 199.160156 93.765625 199.011719 93.46875 198.832031 93.183594 C 198.652344 92.902344 198.441406 92.640625 198.207031 92.398438 C 197.972656 92.160156 197.714844 91.945312 197.4375 91.761719 C 197.15625 91.574219 196.859375 91.417969 196.546875 91.296875 C 196.238281 91.171875 195.914062 91.082031 195.585938 91.023438 C 195.253906 90.96875 194.921875 90.945312 194.585938 90.957031 C 194.25 90.972656 193.917969 91.019531 193.59375 91.101562 C 193.265625 91.183594 192.953125 91.296875 192.652344 91.445312 C 192.351562 91.59375 192.066406 91.773438 191.804688 91.980469 C 191.539062 92.1875 191.300781 92.417969 191.082031 92.675781 C 190.867188 92.933594 190.679688 93.210938 190.523438 93.503906 C 190.363281 93.800781 190.238281 94.113281 190.144531 94.433594 C 190.054688 94.757812 189.996094 95.085938 189.96875 95.421875 C 189.945312 95.753906 189.957031 96.089844 190.003906 96.421875 C 190.046875 96.753906 190.128906 97.078125 190.242188 97.394531 C 190.355469 97.710938 190.5 98.011719 190.675781 98.296875 C 190.851562 98.582031 191.058594 98.847656 191.289062 99.089844 C 191.519531 99.332031 191.773438 99.550781 192.050781 99.738281 C 192.328125 99.929688 192.621094 100.089844 192.933594 100.214844 C 193.242188 100.34375 193.5625 100.4375 193.894531 100.5 C 194.222656 100.5625 194.558594 100.585938 194.894531 100.578125 C 195.226562 100.570312 195.558594 100.527344 195.886719 100.449219 C 196.210938 100.371094 196.527344 100.261719 196.832031 100.117188 C 197.132812 99.972656 197.421875 99.800781 197.6875 99.597656 C 206.984375 103.015625 216.472656 105.777344 226.15625 107.878906 L 228.597656 108.300781 L 228.597656 110.785156 C 228.597656 111.585938 228.613281 112.457031 228.632812 113.394531 C 228.878906 127.332031 229.460938 159.960938 188.523438 191.203125 L 184.996094 193.894531 L 188.472656 198.4375 L 192 195.75 C 210.511719 181.632812 223.117188 165.472656 229.457031 147.722656 C 231.363281 142.191406 232.730469 136.53125 233.554688 130.742188 C 234.378906 124.953125 234.648438 119.136719 234.359375 113.292969 Z M 234.359375 113.292969 " fill-opacity="1" fill-rule="nonzero"/><path fill="#10f3fd" d="M 216.070312 115.394531 C 206.671875 113.289062 197.519531 110.398438 188.617188 106.722656 L 186.722656 105.785156 L 184.828125 106.722656 C 175.925781 110.402344 166.773438 113.292969 157.375 115.394531 L 153.832031 116.007812 L 153.832031 119.605469 C 153.832031 120.152344 153.832031 120.769531 153.808594 121.476562 C 153.621094 132.039062 153.179688 156.769531 184.128906 180.390625 L 186.722656 182.371094 L 189.316406 180.390625 C 220.265625 156.785156 219.828125 132.046875 219.636719 121.488281 C 219.621094 120.769531 219.613281 120.148438 219.613281 119.617188 L 219.613281 116.003906 Z M 216.070312 115.394531 " fill-opacity="1" fill-rule="nonzero"/><g clip-path="url(#id1)"><path fill="#10f3fd" d="M 132.414062 95.785156 C 132.867188 95.785156 133.3125 95.722656 133.746094 95.597656 C 134.183594 95.46875 134.589844 95.285156 134.972656 95.042969 C 135.355469 94.800781 135.699219 94.511719 136 94.171875 C 136.300781 93.832031 136.546875 93.457031 136.742188 93.046875 C 153.046875 89.078125 168.964844 83.898438 184.488281 77.515625 L 186.722656 76.410156 L 188.957031 77.515625 C 195.191406 80.597656 225.804688 91.257812 240.539062 93.828125 L 247.097656 94.964844 L 248.078125 89.320312 L 241.519531 88.183594 C 224.394531 84.351562 207.71875 79.082031 191.496094 72.378906 L 186.722656 70.015625 L 181.945312 72.378906 C 166.882812 78.566406 151.441406 83.585938 135.617188 87.429688 C 135.328125 87.171875 135.011719 86.949219 134.667969 86.765625 C 134.328125 86.582031 133.96875 86.441406 133.589844 86.347656 C 133.214844 86.25 132.828125 86.199219 132.441406 86.199219 C 132.050781 86.195312 131.667969 86.238281 131.289062 86.332031 C 130.914062 86.421875 130.550781 86.554688 130.203125 86.734375 C 129.859375 86.914062 129.539062 87.132812 129.25 87.386719 C 128.957031 87.644531 128.699219 87.929688 128.476562 88.25 C 128.253906 88.570312 128.074219 88.910156 127.933594 89.273438 C 127.792969 89.636719 127.699219 90.011719 127.652344 90.398438 C 127.601562 90.78125 127.601562 91.167969 127.648438 91.554688 C 127.691406 91.941406 127.785156 92.316406 127.921875 92.679688 C 128.058594 93.042969 128.238281 93.386719 128.457031 93.707031 C 128.675781 94.027344 128.933594 94.316406 129.222656 94.574219 C 129.515625 94.835938 129.832031 95.054688 130.175781 95.234375 C 130.519531 95.414062 130.882812 95.554688 131.257812 95.644531 C 131.636719 95.738281 132.019531 95.785156 132.410156 95.785156 Z M 132.414062 95.785156 " fill-opacity="1" fill-rule="nonzero"/></g><path fill="#10f3fd" d="M 167.183594 184.453125 C 167.5 184.453125 167.8125 184.425781 168.121094 184.363281 C 168.429688 184.300781 168.730469 184.210938 169.019531 184.089844 C 169.3125 183.96875 169.585938 183.820312 169.847656 183.644531 C 170.109375 183.472656 170.355469 183.273438 170.578125 183.050781 C 170.800781 182.828125 170.996094 182.585938 171.171875 182.324219 C 171.347656 182.0625 171.496094 181.785156 171.617188 181.492188 C 171.738281 181.203125 171.828125 180.902344 171.890625 180.59375 C 171.949219 180.285156 171.980469 179.972656 171.980469 179.65625 C 171.980469 179.34375 171.949219 179.03125 171.890625 178.722656 C 171.828125 178.414062 171.738281 178.113281 171.617188 177.824219 C 171.496094 177.53125 171.347656 177.253906 171.171875 176.992188 C 170.996094 176.730469 170.800781 176.488281 170.578125 176.265625 C 170.355469 176.042969 170.109375 175.84375 169.847656 175.667969 C 169.585938 175.496094 169.3125 175.347656 169.019531 175.226562 C 168.730469 175.105469 168.429688 175.015625 168.121094 174.953125 C 167.8125 174.890625 167.5 174.859375 167.183594 174.859375 L 167.09375 174.859375 C 165.171875 172.820312 163.359375 170.683594 161.65625 168.457031 C 159.953125 166.230469 158.367188 163.921875 156.898438 161.53125 C 155.429688 159.144531 154.085938 156.6875 152.871094 154.160156 C 151.652344 151.636719 150.5625 149.054688 149.609375 146.417969 C 148.652344 143.785156 147.835938 141.105469 147.152344 138.386719 C 146.46875 135.667969 145.925781 132.917969 145.523438 130.144531 C 145.121094 127.371094 144.859375 124.582031 144.742188 121.78125 C 144.621094 118.980469 144.644531 116.179688 144.8125 113.378906 L 144.8125 113.246094 C 144.828125 112.308594 144.84375 111.503906 144.84375 110.769531 L 144.84375 108.285156 L 147.285156 107.859375 C 157.695312 105.582031 167.890625 102.570312 177.867188 98.835938 L 175.90625 93.449219 C 166.246094 97.070312 156.382812 99.992188 146.308594 102.214844 L 139.113281 103.460938 L 139.113281 110.769531 C 139.113281 111.453125 139.113281 112.234375 139.082031 113.144531 L 139.082031 113.277344 C 138.683594 122.652344 139.628906 131.886719 141.910156 140.984375 C 143.832031 147.949219 146.539062 154.589844 150.03125 160.914062 C 153.523438 167.238281 157.703125 173.066406 162.574219 178.402344 C 162.476562 178.757812 162.421875 179.117188 162.40625 179.484375 C 162.394531 179.851562 162.421875 180.21875 162.492188 180.578125 C 162.5625 180.941406 162.671875 181.289062 162.820312 181.625 C 162.972656 181.960938 163.160156 182.277344 163.382812 182.566406 C 163.605469 182.859375 163.859375 183.125 164.140625 183.359375 C 164.425781 183.59375 164.734375 183.792969 165.0625 183.957031 C 165.390625 184.121094 165.738281 184.242188 166.09375 184.328125 C 166.453125 184.410156 166.816406 184.453125 167.183594 184.453125 Z M 167.183594 184.453125 " fill-opacity="1" fill-rule="nonzero"/><path fill="#10f3fd" d="M 247.585938 107.488281 C 247.085938 107.484375 246.601562 107.558594 246.125 107.710938 C 245.648438 107.859375 245.207031 108.078125 244.800781 108.367188 C 244.394531 108.65625 244.039062 109 243.738281 109.398438 C 243.441406 109.796875 243.207031 110.230469 243.042969 110.703125 C 242.878906 111.171875 242.789062 111.65625 242.777344 112.15625 C 242.765625 112.65625 242.828125 113.144531 242.96875 113.621094 C 243.109375 114.101562 243.320312 114.546875 243.597656 114.960938 C 243.875 115.375 244.210938 115.734375 244.605469 116.042969 C 243.160156 141.175781 234.015625 163.371094 216.65625 183.84375 L 221.03125 187.550781 C 226.125 181.652344 230.632812 175.335938 234.546875 168.59375 C 238.460938 161.855469 241.71875 154.8125 244.316406 147.460938 C 247.789062 137.328125 249.796875 126.910156 250.34375 116.207031 C 250.761719 115.917969 251.121094 115.566406 251.429688 115.160156 C 251.734375 114.75 251.96875 114.304688 252.132812 113.824219 C 252.296875 113.339844 252.382812 112.84375 252.386719 112.332031 C 252.394531 111.824219 252.320312 111.324219 252.164062 110.839844 C 252.011719 110.351562 251.785156 109.902344 251.488281 109.488281 C 251.191406 109.074219 250.839844 108.714844 250.425781 108.414062 C 250.015625 108.113281 249.566406 107.882812 249.082031 107.722656 C 248.597656 107.566406 248.101562 107.488281 247.589844 107.488281 Z M 247.585938 107.488281 " fill-opacity="1" fill-rule="nonzero"/><path fill="#10f3fd" d="M 186.667969 210.15625 C 186.234375 210.160156 185.808594 210.21875 185.394531 210.335938 L 183.664062 209.011719 C 127.539062 166.1875 128.335938 121.429688 128.679688 102.320312 L 122.949219 102.21875 C 122.5625 110.101562 122.921875 117.953125 124.035156 125.765625 C 125.148438 133.582031 126.988281 141.222656 129.5625 148.683594 C 138.117188 172.632812 155.148438 194.464844 180.1875 213.570312 L 181.878906 214.859375 C 181.878906 214.890625 181.878906 214.921875 181.878906 214.953125 C 181.875 215.265625 181.90625 215.578125 181.96875 215.886719 C 182.03125 216.195312 182.121094 216.496094 182.242188 216.789062 C 182.363281 217.078125 182.507812 217.355469 182.683594 217.617188 C 182.859375 217.878906 183.058594 218.121094 183.28125 218.34375 C 183.503906 218.566406 183.746094 218.765625 184.007812 218.941406 C 184.269531 219.117188 184.546875 219.265625 184.835938 219.386719 C 185.128906 219.507812 185.425781 219.597656 185.734375 219.660156 C 186.046875 219.71875 186.355469 219.75 186.671875 219.75 C 186.988281 219.75 187.300781 219.722656 187.609375 219.660156 C 187.917969 219.597656 188.21875 219.507812 188.507812 219.386719 C 188.800781 219.265625 189.074219 219.117188 189.335938 218.945312 C 189.601562 218.769531 189.84375 218.570312 190.066406 218.347656 C 190.289062 218.125 190.488281 217.882812 190.660156 217.621094 C 190.835938 217.359375 190.984375 217.082031 191.105469 216.789062 C 191.226562 216.5 191.316406 216.199219 191.378906 215.890625 C 191.441406 215.582031 191.46875 215.269531 191.46875 214.953125 C 191.46875 214.640625 191.441406 214.328125 191.378906 214.019531 C 191.316406 213.710938 191.226562 213.410156 191.105469 213.121094 C 190.984375 212.828125 190.835938 212.550781 190.664062 212.289062 C 190.488281 212.027344 190.289062 211.785156 190.066406 211.5625 C 189.84375 211.339844 189.601562 211.140625 189.339844 210.964844 C 189.078125 210.792969 188.800781 210.644531 188.507812 210.523438 C 188.21875 210.402344 187.917969 210.3125 187.609375 210.25 C 187.300781 210.1875 186.988281 210.15625 186.671875 210.15625 Z M 186.667969 210.15625 " fill-opacity="1" fill-rule="nonzero"/><g fill="#ffffff" fill-opacity="1"><g transform="translate(88.765104, 258.050652)"><g><path d="M 1.300781 -0.234375 L 1.300781 0 L 7.433594 0 L 7.433594 -0.234375 L 7.355469 -0.234375 C 6.914062 -0.261719 4.679688 -0.519531 6.65625 -4.859375 L 7.511719 -6.734375 L 16.144531 -6.734375 L 17.859375 -2.964844 C 19.003906 -0.46875 17.105469 -0.261719 16.585938 -0.234375 L 16.453125 -0.234375 L 16.453125 0 L 27.007812 0 L 27.007812 -0.234375 L 26.878906 -0.234375 C 26.359375 -0.261719 24.355469 -0.492188 23.238281 -2.964844 L 14.375 -22.40625 L 11.699219 -16.480469 L 6.394531 -4.859375 C 4.652344 -0.988281 2.625 -0.339844 1.742188 -0.234375 Z M 16.039062 -6.964844 L 7.617188 -6.964844 L 11.828125 -16.195312 Z M 16.039062 -6.964844 "/></g></g></g><g fill="#ffffff" fill-opacity="1"><g transform="translate(119.072611, 258.050652)"><g><path d="M 1.300781 -0.234375 L 1.300781 0 L 20.121094 0 L 21.835938 -5.875 L 21.601562 -5.875 C 20.355469 -2.105469 17.285156 -0.234375 12.816406 -0.234375 C 10.917969 -0.234375 9.75 -1.273438 9.75 -2.988281 L 9.75 -19.417969 C 9.75 -21.132812 10.917969 -22.171875 12.816406 -22.171875 L 12.816406 -22.40625 L 1.300781 -22.40625 L 1.300781 -22.171875 C 3.199219 -22.171875 4.367188 -21.132812 4.367188 -19.417969 L 4.367188 -2.988281 C 4.367188 -1.273438 3.199219 -0.234375 1.300781 -0.234375 Z M 1.300781 -0.234375 "/></g></g></g><g fill="#ffffff" fill-opacity="1"><g transform="translate(144.207674, 258.050652)"><g><path d="M 12.660156 0 C 14.011719 0 15.285156 -0.234375 16.507812 -0.675781 C 18.820312 -1.351562 21.316406 -1.195312 21.394531 -0.234375 L 21.628906 -0.234375 L 21.628906 -7.226562 C 21.679688 -8.863281 22.796875 -9.851562 24.589844 -9.851562 L 24.589844 -10.085938 L 13.386719 -10.085938 L 13.386719 -9.851562 C 15.078125 -9.851562 16.300781 -8.917969 16.324219 -7.199219 L 16.324219 -1.089844 C 15.363281 -0.675781 13.699219 -0.3125 12.660156 -0.3125 C 11.046875 -0.3125 6.601562 -1.378906 6.578125 -11.386719 C 6.601562 -21.394531 11.046875 -22.460938 12.660156 -22.460938 C 13.152344 -22.460938 14.296875 -22.355469 15.648438 -21.941406 C 18.484375 -20.976562 20.015625 -19.160156 20.09375 -16.402344 L 20.328125 -16.402344 L 20.328125 -22.539062 L 20.09375 -22.539062 C 20.015625 -21.550781 18.949219 -21.367188 16.507812 -22.097656 C 15.285156 -22.539062 14.011719 -22.773438 12.660156 -22.773438 C 9.671875 -22.773438 6.863281 -21.601562 4.707031 -19.523438 C 2.625 -17.417969 1.457031 -14.867188 1.300781 -12.0625 L 1.300781 -10.761719 C 1.636719 -4.730469 6.65625 0 12.660156 0 Z M 12.660156 0 "/></g></g></g><g fill="#ffffff" fill-opacity="1"><g transform="translate(172.097903, 258.050652)"><g><path d="M 1.300781 -0.234375 L 1.300781 0 L 12.816406 0 L 12.816406 -0.234375 C 10.917969 -0.234375 9.75 -1.273438 9.75 -2.988281 L 9.75 -10.527344 L 18.636719 -10.527344 L 18.636719 -2.988281 C 18.636719 -1.273438 17.46875 -0.234375 15.570312 -0.234375 L 15.570312 0 L 27.085938 0 L 27.085938 -0.234375 C 25.1875 -0.234375 24.019531 -1.273438 24.019531 -2.988281 L 24.019531 -19.417969 C 24.019531 -21.132812 25.1875 -22.171875 27.085938 -22.171875 L 27.085938 -22.40625 L 15.570312 -22.40625 L 15.570312 -22.171875 C 17.46875 -22.171875 18.636719 -21.132812 18.636719 -19.417969 L 18.636719 -10.761719 L 9.75 -10.761719 L 9.75 -19.417969 C 9.75 -21.132812 10.917969 -22.171875 12.816406 -22.171875 L 12.816406 -22.40625 L 1.300781 -22.40625 L 1.300781 -22.171875 C 3.199219 -22.171875 4.367188 -21.132812 4.367188 -19.417969 L 4.367188 -2.988281 C 4.367188 -1.273438 3.199219 -0.234375 1.300781 -0.234375 Z M 1.300781 -0.234375 "/></g></g></g><g fill="#ffffff" fill-opacity="1"><g transform="translate(202.483389, 258.050652)"><g><path d="M 1.300781 -0.234375 L 1.300781 0 L 7.433594 0 L 7.433594 -0.234375 L 7.355469 -0.234375 C 6.914062 -0.261719 4.679688 -0.519531 6.65625 -4.859375 L 7.511719 -6.734375 L 16.144531 -6.734375 L 17.859375 -2.964844 C 19.003906 -0.46875 17.105469 -0.261719 16.585938 -0.234375 L 16.453125 -0.234375 L 16.453125 0 L 27.007812 0 L 27.007812 -0.234375 L 26.878906 -0.234375 C 26.359375 -0.261719 24.355469 -0.492188 23.238281 -2.964844 L 14.375 -22.40625 L 11.699219 -16.480469 L 6.394531 -4.859375 C 4.652344 -0.988281 2.625 -0.339844 1.742188 -0.234375 Z M 16.039062 -6.964844 L 7.617188 -6.964844 L 11.828125 -16.195312 Z M 16.039062 -6.964844 "/></g></g></g><g fill="#ffffff" fill-opacity="1"><g transform="translate(232.79089, 258.050652)"><g><path d="M 1.300781 -0.234375 L 1.300781 0 L 20.121094 0 L 21.835938 -5.875 L 21.601562 -5.875 C 20.355469 -2.105469 17.285156 -0.234375 12.816406 -0.234375 C 10.917969 -0.234375 9.75 -1.273438 9.75 -2.988281 L 9.75 -19.417969 C 9.75 -21.132812 10.917969 -22.171875 12.816406 -22.171875 L 12.816406 -22.40625 L 1.300781 -22.40625 L 1.300781 -22.171875 C 3.199219 -22.171875 4.367188 -21.132812 4.367188 -19.417969 L 4.367188 -2.988281 C 4.367188 -1.273438 3.199219 -0.234375 1.300781 -0.234375 Z M 1.300781 -0.234375 "/></g></g></g><g fill="#ffffff" fill-opacity="1"><g transform="translate(257.92596, 258.050652)"><g><path d="M 1.300781 -0.234375 L 1.300781 0 L 7.433594 0 L 7.433594 -0.234375 L 7.355469 -0.234375 C 6.914062 -0.261719 4.679688 -0.519531 6.65625 -4.859375 L 7.511719 -6.734375 L 16.144531 -6.734375 L 17.859375 -2.964844 C 19.003906 -0.46875 17.105469 -0.261719 16.585938 -0.234375 L 16.453125 -0.234375 L 16.453125 0 L 27.007812 0 L 27.007812 -0.234375 L 26.878906 -0.234375 C 26.359375 -0.261719 24.355469 -0.492188 23.238281 -2.964844 L 14.375 -22.40625 L 11.699219 -16.480469 L 6.394531 -4.859375 C 4.652344 -0.988281 2.625 -0.339844 1.742188 -0.234375 Z M 16.039062 -6.964844 L 7.617188 -6.964844 L 11.828125 -16.195312 Z M 16.039062 -6.964844 "/></g></g></g><g fill="#1c224b" fill-opacity="1"><g transform="translate(166.807611, 152.876856)"><g><path d="M 1.898438 -0.34375 L 1.898438 0 L 10.867188 0 L 10.867188 -0.34375 L 10.753906 -0.34375 C 10.105469 -0.378906 6.839844 -0.761719 9.726562 -7.105469 L 10.980469 -9.839844 L 23.59375 -9.839844 L 26.101562 -4.332031 C 27.773438 -0.683594 25 -0.378906 24.242188 -0.34375 L 24.050781 -0.34375 L 24.050781 0 L 39.476562 0 L 39.476562 -0.34375 L 39.285156 -0.34375 C 38.527344 -0.378906 35.601562 -0.722656 33.96875 -4.332031 L 21.011719 -32.75 L 17.097656 -24.089844 L 9.347656 -7.105469 C 6.800781 -1.445312 3.835938 -0.492188 2.546875 -0.34375 Z M 23.441406 -10.183594 L 11.132812 -10.183594 L 17.289062 -23.671875 Z M 23.441406 -10.183594 "/></g></g></g></svg>